<svg width="295" height="84" viewBox="0 0 295 84" fill="none" xmlns="http://www.w3.org/2000/svg">
<path d="M0 78.75H82.25C82.25 81.6495 70.3995 84 67.5 84H16C13.1005 84 0 81.6495 0 78.75Z" fill="#6F6F6F"/>
<path d="M0 70.6563V38.1938H10.6725C12.896 38.1938 14.9738 38.6189 16.9059 39.4691C18.8533 40.3038 20.563 41.4709 22.0351 42.9704C23.5225 44.4544 24.6803 46.178 25.5083 48.1412C26.3517 50.089 26.7734 52.1836 26.7734 54.425C26.7734 56.6665 26.3517 58.7688 25.5083 60.732C24.6803 62.6798 23.5225 64.4034 22.0351 65.9028C20.563 67.3868 18.8533 68.5539 16.9059 69.4041C14.9738 70.2389 12.896 70.6563 10.6725 70.6563H0ZM5.61229 64.9985H10.6725C12.0986 64.9985 13.4404 64.728 14.6977 64.187C15.9705 63.6305 17.0899 62.873 18.0559 61.9146C19.022 60.9407 19.781 59.82 20.333 58.5524C20.8851 57.2694 21.1611 55.8936 21.1611 54.425C21.1611 52.9565 20.8851 51.5884 20.333 50.3208C19.781 49.0532 19.022 47.9325 18.0559 46.9586C17.0899 45.9848 15.9781 45.2273 14.7207 44.6863C13.4634 44.1298 12.1139 43.8515 10.6725 43.8515H5.61229V64.9985Z" fill="white"/>
<path d="M30.5484 47.4688H36.1607V70.6563H30.5484V47.4688ZM33.4006 44.4776C32.5725 44.4776 31.8748 44.207 31.3075 43.666C30.7401 43.1095 30.4564 42.4139 30.4564 41.5791C30.4564 40.7598 30.7401 40.0719 31.3075 39.5154C31.8748 38.9589 32.5649 38.6807 33.3776 38.6807C34.1903 38.6807 34.8726 38.9589 35.4247 39.5154C35.992 40.0719 36.2757 40.7598 36.2757 41.5791C36.2757 42.4139 35.9997 43.1095 35.4477 43.666C34.8956 44.207 34.2133 44.4776 33.4006 44.4776Z" fill="white"/>
<path d="M48.1156 71.0736C46.9195 70.9963 45.7618 70.7567 44.6424 70.3548C43.5383 69.9374 42.557 69.3732 41.6982 68.6621C40.8395 67.9511 40.1802 67.1009 39.7201 66.1115L44.4584 64.071C44.6424 64.3802 44.9414 64.7125 45.3554 65.0681C45.7694 65.4082 46.2601 65.6941 46.8275 65.926C47.4102 66.1579 48.0466 66.2738 48.7366 66.2738C49.3193 66.2738 49.8713 66.1965 50.3927 66.042C50.9294 65.8719 51.3587 65.6169 51.6807 65.2768C52.0181 64.9367 52.1868 64.4961 52.1868 63.9551C52.1868 63.3831 51.9874 62.9426 51.5887 62.6334C51.2054 62.3088 50.7147 62.0692 50.1167 61.9146C49.534 61.7445 48.9666 61.59 48.4146 61.4508C46.9578 61.1571 45.6008 60.7011 44.3434 60.0828C43.1013 59.4644 42.0969 58.6683 41.3302 57.6945C40.5789 56.7051 40.2032 55.5148 40.2032 54.1236C40.2032 52.5932 40.6019 51.2715 41.3992 50.1585C42.2119 49.0455 43.2623 48.1876 44.5504 47.5847C45.8538 46.9818 47.2569 46.6804 48.7596 46.6804C50.5844 46.6804 52.2558 47.0668 53.7739 47.8398C55.3073 48.5972 56.5187 49.6716 57.408 51.0628L52.9688 53.7062C52.7541 53.3352 52.4551 52.9951 52.0718 52.686C51.6884 52.3613 51.2514 52.0985 50.7607 51.8976C50.27 51.6812 49.7563 51.5575 49.2196 51.5266C48.5296 51.4957 47.9009 51.5575 47.3335 51.7121C46.7662 51.8667 46.3061 52.1295 45.9535 52.5005C45.6161 52.8715 45.4474 53.3661 45.4474 53.9845C45.4474 54.5719 45.6774 55.0124 46.1375 55.3061C46.5975 55.5844 47.1495 55.8008 47.7936 55.9554C48.4529 56.11 49.0816 56.28 49.6796 56.4655C51.029 56.9138 52.2941 57.4626 53.4748 58.1118C54.6709 58.7611 55.6293 59.5572 56.35 60.5001C57.0707 61.4431 57.4157 62.5716 57.385 63.8855C57.385 65.385 56.9403 66.6989 56.051 67.8274C55.1616 68.9404 54.0115 69.7906 52.6008 70.378C51.2054 70.9654 49.7103 71.1973 48.1156 71.0736Z" fill="white"/>
<path d="M82.3905 56.0018V70.6563H76.7783V57.4858C76.7783 56.5737 76.5559 55.7467 76.1112 55.0047C75.6665 54.2472 75.0685 53.6521 74.3171 53.2193C73.5811 52.771 72.7607 52.5468 71.856 52.5468C70.9513 52.5468 70.1233 52.771 69.3719 53.2193C68.6358 53.6521 68.0455 54.2472 67.6008 55.0047C67.1714 55.7467 66.9568 56.5737 66.9568 57.4858V70.6563H61.3445L61.3215 35.875H66.9338L66.9568 49.5324C67.7388 48.6977 68.6742 48.0407 69.7629 47.5615C70.8516 47.0668 72.0247 46.8195 73.2821 46.8195C74.9535 46.8195 76.4792 47.2369 77.8593 48.0716C79.2394 48.8909 80.3358 49.9962 81.1485 51.3875C81.9765 52.7632 82.3905 54.3014 82.3905 56.0018Z" fill="white"/>
<path d="M98.0245 70.6563V38.1938H108.697C110.92 38.1938 112.998 38.6189 114.93 39.4691C116.878 40.3038 118.588 41.4709 120.06 42.9704C121.547 44.4544 122.705 46.178 123.533 48.1412C124.376 50.089 124.798 52.1836 124.798 54.425C124.798 56.6665 124.376 58.7688 123.533 60.732C122.705 62.6798 121.547 64.4034 120.06 65.9028C118.588 67.3868 116.878 68.5539 114.93 69.4041C112.998 70.2389 110.92 70.6563 108.697 70.6563H98.0245ZM103.637 64.9985H108.697C110.123 64.9985 111.465 64.728 112.722 64.187C113.995 63.6305 115.114 62.873 116.08 61.9146C117.046 60.9407 117.806 59.82 118.358 58.5524C118.91 57.2694 119.186 55.8936 119.186 54.425C119.186 52.9565 118.91 51.5884 118.358 50.3208C117.806 49.0532 117.046 47.9325 116.08 46.9586C115.114 45.9848 114.003 45.2273 112.745 44.6863C111.488 44.1298 110.138 43.8515 108.697 43.8515H103.637V64.9985Z" fill="white"/>
<path d="M128.573 47.4688H134.185V70.6563H128.573V47.4688ZM131.425 44.4776C130.597 44.4776 129.899 44.207 129.332 43.666C128.765 43.1095 128.481 42.4139 128.481 41.5791C128.481 40.7598 128.765 40.0719 129.332 39.5154C129.899 38.9589 130.589 38.6807 131.402 38.6807C132.215 38.6807 132.897 38.9589 133.449 39.5154C134.017 40.0719 134.3 40.7598 134.3 41.5791C134.3 42.4139 134.024 43.1095 133.472 43.666C132.92 44.207 132.238 44.4776 131.425 44.4776Z" fill="white"/>
<path d="M146.14 71.0736C144.944 70.9963 143.786 70.7567 142.667 70.3548C141.563 69.9374 140.581 69.3732 139.723 68.6621C138.864 67.9511 138.205 67.1009 137.745 66.1115L142.483 64.071C142.667 64.3802 142.966 64.7125 143.38 65.0681C143.794 65.4082 144.285 65.6941 144.852 65.926C145.435 66.1579 146.071 66.2738 146.761 66.2738C147.344 66.2738 147.896 66.1965 148.417 66.042C148.954 65.8719 149.383 65.6169 149.705 65.2768C150.043 64.9367 150.211 64.4961 150.211 63.9551C150.211 63.3831 150.012 62.9426 149.613 62.6334C149.23 62.3088 148.739 62.0692 148.141 61.9146C147.558 61.7445 146.991 61.59 146.439 61.4508C144.982 61.1571 143.625 60.7011 142.368 60.0828C141.126 59.4644 140.121 58.6683 139.355 57.6945C138.603 56.7051 138.228 55.5148 138.228 54.1236C138.228 52.5932 138.626 51.2715 139.424 50.1585C140.236 49.0455 141.287 48.1876 142.575 47.5847C143.878 46.9818 145.281 46.6804 146.784 46.6804C148.609 46.6804 150.28 47.0668 151.798 47.8398C153.332 48.5972 154.543 49.6716 155.433 51.0628L150.993 53.7062C150.779 53.3352 150.48 52.9951 150.096 52.686C149.713 52.3613 149.276 52.0985 148.785 51.8976C148.295 51.6812 147.781 51.5575 147.244 51.5266C146.554 51.4957 145.925 51.5575 145.358 51.7121C144.791 51.8667 144.331 52.1295 143.978 52.5005C143.641 52.8715 143.472 53.3661 143.472 53.9845C143.472 54.5719 143.702 55.0124 144.162 55.3061C144.622 55.5844 145.174 55.8008 145.818 55.9554C146.477 56.11 147.106 56.28 147.704 56.4655C149.054 56.9138 150.319 57.4626 151.499 58.1118C152.695 58.7611 153.654 59.5572 154.374 60.5001C155.095 61.4431 155.44 62.5716 155.41 63.8855C155.41 65.385 154.965 66.6989 154.075 67.8274C153.186 68.9404 152.036 69.7906 150.625 70.378C149.23 70.9654 147.735 71.1973 146.14 71.0736Z" fill="white"/>
<path d="M173.247 63.6768L178.308 66.4361C177.25 67.8892 175.923 69.0563 174.328 69.9375C172.734 70.8186 170.993 71.2591 169.107 71.2591C166.991 71.2591 165.059 70.7104 163.311 69.6128C161.578 68.5153 160.19 67.0468 159.148 65.2072C158.12 63.3522 157.607 61.304 157.607 59.0625C157.607 57.3621 157.906 55.7776 158.504 54.3091C159.102 52.8251 159.922 51.5266 160.965 50.4136C162.023 49.2851 163.249 48.404 164.645 47.7702C166.04 47.1364 167.528 46.8195 169.107 46.8195C170.993 46.8195 172.734 47.2601 174.328 48.1412C175.923 49.0223 177.25 50.2049 178.308 51.6889L173.247 54.425C172.711 53.8067 172.074 53.3275 171.338 52.9874C170.618 52.6473 169.874 52.4773 169.107 52.4773C168.003 52.4773 167.006 52.7864 166.117 53.4048C165.228 54.0076 164.522 54.8115 164.001 55.8163C163.479 56.8056 163.219 57.8877 163.219 59.0625C163.219 60.2219 163.479 61.304 164.001 62.3088C164.522 63.2981 165.228 64.0942 166.117 64.6971C167.006 65.3 168.003 65.6014 169.107 65.6014C169.904 65.6014 170.664 65.4314 171.384 65.0913C172.105 64.7357 172.726 64.2643 173.247 63.6768Z" fill="white"/>
<path d="M191.839 71.2591C189.723 71.2591 187.791 70.7104 186.042 69.6128C184.31 68.5153 182.922 67.0468 181.879 65.2072C180.852 63.3522 180.338 61.304 180.338 59.0625C180.338 57.3621 180.637 55.7776 181.235 54.3091C181.833 52.8251 182.654 51.5266 183.696 50.4136C184.754 49.2851 185.981 48.404 187.377 47.7702C188.772 47.1364 190.259 46.8195 191.839 46.8195C193.955 46.8195 195.879 47.3683 197.612 48.4658C199.36 49.5634 200.748 51.0396 201.775 52.8946C202.818 54.7496 203.339 56.8056 203.339 59.0625C203.339 60.7475 203.04 62.3242 202.442 63.7928C201.844 65.2613 201.016 66.5598 199.958 67.6883C198.915 68.8013 197.696 69.6747 196.301 70.3084C194.921 70.9422 193.433 71.2591 191.839 71.2591ZM191.839 65.6014C192.958 65.6014 193.963 65.3 194.852 64.6971C195.741 64.0942 196.439 63.2981 196.945 62.3088C197.466 61.3194 197.727 60.2374 197.727 59.0625C197.727 57.8568 197.459 56.7592 196.922 55.7699C196.401 54.7651 195.688 53.969 194.783 53.3816C193.893 52.7787 192.912 52.4773 191.839 52.4773C190.735 52.4773 189.738 52.7787 188.849 53.3816C187.959 53.9845 187.254 54.7883 186.732 55.7931C186.211 56.7979 185.95 57.8877 185.95 59.0625C185.95 60.2837 186.219 61.389 186.755 62.3783C187.292 63.3677 188.005 64.156 188.895 64.7435C189.799 65.3154 190.781 65.6014 191.839 65.6014Z" fill="white"/>
<path d="M220.08 70.6563H212.835L204.462 47.4456H210.443L216.469 64.1406L222.472 47.4456H228.453L220.08 70.6563Z" fill="white"/>
<path d="M241.076 71.2591C238.959 71.2591 237.027 70.7104 235.279 69.6128C233.547 68.5153 232.159 67.039 231.116 65.184C230.089 63.329 229.575 61.2808 229.575 59.0393C229.575 57.3544 229.874 55.7776 230.472 54.3091C231.07 52.8251 231.89 51.5266 232.933 50.4136C233.991 49.2851 235.218 48.404 236.613 47.7702C238.009 47.1364 239.496 46.8195 241.076 46.8195C242.87 46.8195 244.51 47.206 245.998 47.9789C247.501 48.7363 248.773 49.7798 249.816 51.1092C250.859 52.4386 251.618 53.9535 252.093 55.654C252.569 57.3544 252.676 59.1321 252.415 60.9871H235.601C235.816 61.8528 236.169 62.6334 236.659 63.329C237.15 64.0092 237.771 64.558 238.522 64.9753C239.274 65.3773 240.125 65.5859 241.076 65.6014C242.057 65.6169 242.946 65.385 243.744 64.9058C244.556 64.4111 245.231 63.7464 245.768 62.9116L251.495 64.2565C250.56 66.3125 249.164 67.9974 247.309 69.3114C245.453 70.6099 243.376 71.2591 241.076 71.2591ZM235.417 56.7438H246.734C246.565 55.8163 246.205 54.9815 245.653 54.2395C245.116 53.4821 244.449 52.8792 243.652 52.4309C242.854 51.9826 241.996 51.7584 241.076 51.7584C240.156 51.7584 239.305 51.9826 238.522 52.4309C237.74 52.8637 237.073 53.4589 236.521 54.2163C235.985 54.9583 235.617 55.8008 235.417 56.7438Z" fill="white"/>
<path d="M256.181 70.6563L256.158 47.4688H261.77L261.793 49.5324C262.575 48.6977 263.51 48.0407 264.599 47.5615C265.688 47.0668 266.861 46.8195 268.118 46.8195C268.962 46.8195 269.805 46.9432 270.648 47.1905L268.44 52.8946C267.857 52.6628 267.275 52.5468 266.692 52.5468C265.787 52.5468 264.959 52.771 264.208 53.2193C263.472 53.6521 262.882 54.2472 262.437 55.0047C262.008 55.7467 261.793 56.5737 261.793 57.4858V70.6563H256.181Z" fill="white"/>
<path d="M288.918 47.4688H294.875L282.293 82.25H276.336L280.499 70.6563L272.219 47.4688H278.36L283.305 62.9116L288.918 47.4688Z" fill="white"/>
<path d="M0 29.75C0.23219 17.6474 18.5555 7.875 41.125 7.875C63.6945 7.875 82.0178 17.6474 82.25 29.75H0Z" fill="#6F6F6F"/>
<path d="M38.7386 0C38.1236 0 37.625 0.423065 37.625 0.944947V5.22958C38.5166 5.20809 39.4138 5.19721 40.3163 5.19721C41.4698 5.19721 42.6146 5.21497 43.75 5.25V0.944947C43.75 0.423065 43.2514 0 42.6364 0H38.7386Z" fill="#6F6F6F"/>
</svg>
